<mxfile host="www.draw.io" modified="2020-01-10T15:19:04.748Z" agent="Mozilla/5.0 (Windows NT 10.0; Win64; x64) AppleWebKit/537.36 (KHTML, like Gecko) Chrome/79.0.3945.117 Safari/537.36" etag="BSuGQJPm8oPStH7gtZJS" version="12.5.1" type="github">
  <diagram id="OQl2kodtS5EPRaap7i-o" name="Page-1">
    <mxGraphModel dx="1182" dy="683" grid="1" gridSize="10" guides="1" tooltips="1" connect="1" arrows="1" fold="1" page="1" pageScale="1" pageWidth="827" pageHeight="1169" math="0" shadow="0">
      <root>
        <mxCell id="0"/>
        <mxCell id="1" parent="0"/>
        <mxCell id="PZsIo8hZO21PCBhSJB-J-1" value="" style="endArrow=classic;html=1;" edge="1" parent="1">
          <mxGeometry width="50" height="50" relative="1" as="geometry">
            <mxPoint x="240" y="150" as="sourcePoint"/>
            <mxPoint x="330" y="110" as="targetPoint"/>
          </mxGeometry>
        </mxCell>
        <mxCell id="PZsIo8hZO21PCBhSJB-J-2" value="" style="ellipse;whiteSpace=wrap;html=1;aspect=fixed;" vertex="1" parent="1">
          <mxGeometry x="220" y="140" width="20" height="20" as="geometry"/>
        </mxCell>
        <mxCell id="PZsIo8hZO21PCBhSJB-J-3" value="" style="ellipse;whiteSpace=wrap;html=1;aspect=fixed;" vertex="1" parent="1">
          <mxGeometry x="330" y="100" width="20" height="20" as="geometry"/>
        </mxCell>
        <mxCell id="PZsIo8hZO21PCBhSJB-J-5" value="" style="endArrow=classic;html=1;" edge="1" parent="1">
          <mxGeometry width="50" height="50" relative="1" as="geometry">
            <mxPoint x="350" y="110" as="sourcePoint"/>
            <mxPoint x="440" y="150" as="targetPoint"/>
          </mxGeometry>
        </mxCell>
        <mxCell id="PZsIo8hZO21PCBhSJB-J-7" value="&lt;font style=&quot;font-size: 20px&quot;&gt;s_1&lt;/font&gt;&lt;span style=&quot;color: rgba(0 , 0 , 0 , 0) ; font-family: monospace ; font-size: 0px ; white-space: nowrap&quot;&gt;%3CmxGraphModel%3E%3Croot%3E%3CmxCell%20id%3D%220%22%2F%3E%3CmxCell%20id%3D%221%22%20parent%3D%220%22%2F%3E%3CmxCell%20id%3D%222%22%20value%3D%22%26lt%3Bfont%20style%3D%26quot%3Bfont-size%3A%2020px%26quot%3B%26gt%3Bs%26lt%3B%2Ffont%26gt%3B%22%20style%3D%22text%3Bhtml%3D1%3BstrokeColor%3Dnone%3BfillColor%3Dnone%3Balign%3Dcenter%3BverticalAlign%3Dmiddle%3BwhiteSpace%3Dwrap%3Brounded%3D0%3B%22%20vertex%3D%221%22%20parent%3D%221%22%3E%3CmxGeometry%20x%3D%22300%22%20y%3D%22170%22%20width%3D%2240%22%20height%3D%2220%22%20as%3D%22geometry%22%2F%3E%3C%2FmxCell%3E%3C%2Froot%3E%3C%2FmxGraphModel%2&lt;/span&gt;" style="text;html=1;strokeColor=none;fillColor=none;align=center;verticalAlign=middle;whiteSpace=wrap;rounded=0;" vertex="1" parent="1">
          <mxGeometry x="325" y="80" width="30" height="20" as="geometry"/>
        </mxCell>
        <mxCell id="PZsIo8hZO21PCBhSJB-J-8" value="&lt;font style=&quot;font-size: 20px&quot;&gt;s&lt;/font&gt;&lt;span style=&quot;color: rgba(0 , 0 , 0 , 0) ; font-family: monospace ; font-size: 0px ; white-space: nowrap&quot;&gt;%3CmxGraphModel%3E%3Croot%3E%3CmxCell%20id%3D%220%22%2F%3E%3CmxCell%20id%3D%221%22%20parent%3D%220%22%2F%3E%3CmxCell%20id%3D%222%22%20value%3D%22%26lt%3Bfont%20style%3D%26quot%3Bfont-size%3A%2020px%26quot%3B%26gt%3Bs%26lt%3B%2Ffont%26gt%3B%22%20style%3D%22text%3Bhtml%3D1%3BstrokeColor%3Dnone%3BfillColor%3Dnone%3Balign%3Dcenter%3BverticalAlign%3Dmiddle%3BwhiteSpace%3Dwrap%3Brounded%3D0%3B%22%20vertex%3D%221%22%20parent%3D%221%22%3E%3CmxGeometry%20x%3D%22300%22%20y%3D%22170%22%20width%3D%2240%22%20height%3D%2220%22%20as%3D%22geometry%22%2F%3E%3C%2FmxCell%3E%3C%2Froot%3E%3C%2FmxGraphMo&lt;/span&gt;" style="text;html=1;strokeColor=none;fillColor=none;align=center;verticalAlign=middle;whiteSpace=wrap;rounded=0;" vertex="1" parent="1">
          <mxGeometry x="220" y="120" width="20" height="20" as="geometry"/>
        </mxCell>
        <mxCell id="PZsIo8hZO21PCBhSJB-J-9" value="&lt;span style=&quot;font-size: 20px&quot;&gt;a&lt;/span&gt;" style="text;html=1;strokeColor=none;fillColor=none;align=center;verticalAlign=middle;whiteSpace=wrap;rounded=0;" vertex="1" parent="1">
          <mxGeometry x="280" y="130" width="20" height="20" as="geometry"/>
        </mxCell>
        <mxCell id="PZsIo8hZO21PCBhSJB-J-10" value="" style="curved=1;endArrow=classic;html=1;strokeColor=#FF3333;" edge="1" parent="1">
          <mxGeometry width="50" height="50" relative="1" as="geometry">
            <mxPoint x="280" y="130" as="sourcePoint"/>
            <mxPoint x="290" y="80" as="targetPoint"/>
            <Array as="points">
              <mxPoint x="290" y="130"/>
              <mxPoint x="270" y="100"/>
            </Array>
          </mxGeometry>
        </mxCell>
        <mxCell id="PZsIo8hZO21PCBhSJB-J-11" value="&lt;font style=&quot;font-size: 20px&quot; color=&quot;#ff3333&quot;&gt;r&lt;/font&gt;" style="text;html=1;strokeColor=none;fillColor=none;align=center;verticalAlign=middle;whiteSpace=wrap;rounded=0;" vertex="1" parent="1">
          <mxGeometry x="290" y="70" width="20" height="20" as="geometry"/>
        </mxCell>
        <mxCell id="PZsIo8hZO21PCBhSJB-J-14" value="&lt;span style=&quot;font-size: 20px&quot;&gt;Q(s_1, a_1)&lt;/span&gt;" style="text;html=1;strokeColor=none;fillColor=none;align=center;verticalAlign=middle;whiteSpace=wrap;rounded=0;" vertex="1" parent="1">
          <mxGeometry x="440" y="135" width="120" height="30" as="geometry"/>
        </mxCell>
        <mxCell id="PZsIo8hZO21PCBhSJB-J-16" value="&lt;span style=&quot;font-size: 20px&quot;&gt;a_1&lt;/span&gt;" style="text;html=1;strokeColor=none;fillColor=none;align=center;verticalAlign=middle;whiteSpace=wrap;rounded=0;" vertex="1" parent="1">
          <mxGeometry x="400" y="110" width="20" height="20" as="geometry"/>
        </mxCell>
      </root>
    </mxGraphModel>
  </diagram>
</mxfile>
